<?xml version="1.0" standalone="no"?>
<!DOCTYPE svg PUBLIC "-//W3C//DTD SVG 20010904//EN"
 "http://www.w3.org/TR/2001/REC-SVG-20010904/DTD/svg10.dtd">
<svg version="1.0" xmlns="http://www.w3.org/2000/svg"
 width="347.000000pt" height="347.000000pt" viewBox="0 0 347.000000 347.000000"
 preserveAspectRatio="xMidYMid meet">
<metadata>
Created by potrace 1.14, written by Peter Selinger 2001-2017
</metadata>
<g transform="translate(0.000000,347.000000) scale(0.100000,-0.100000)"
fill="#000000" stroke="none">
<path d="M572 3465 c2 -6 -7 -23 -18 -38 -18 -22 -23 -24 -28 -11 -4 10 -2 13
7 9 6 -4 1 2 -13 13 -16 13 -27 17 -31 10 -4 -6 -12 -7 -19 -3 -9 5 -11 4 -6
-3 4 -7 2 -12 -4 -12 -6 0 -8 -4 -5 -10 4 -6 -2 -7 -17 -1 -13 5 -27 9 -31 9
-14 1 -21 12 -8 12 7 0 9 5 6 11 -5 6 -12 4 -20 -8 -13 -17 -16 -17 -43 -2
-35 19 -57 10 -49 -20 4 -18 2 -19 -14 -10 -10 5 -19 15 -19 22 0 8 4 7 11 -3
8 -12 10 -12 7 -1 -2 8 -16 15 -30 15 -17 1 -24 -3 -21 -11 3 -7 9 -11 13 -8
4 3 11 -2 14 -11 4 -10 2 -13 -6 -8 -7 4 -35 9 -62 10 -28 1 -59 3 -69 3 -10
1 -15 6 -12 11 3 6 1 10 -5 10 -7 0 -10 -6 -7 -14 7 -17 -20 -30 -27 -13 -3 9
-5 9 -5 0 -1 -18 18 -26 34 -13 8 7 15 7 19 1 8 -13 -3 -19 -35 -17 -22 1 -26
-2 -23 -18 2 -10 10 -26 17 -35 15 -16 20 -54 6 -46 -4 3 -10 -2 -13 -11 -3
-8 -10 -12 -16 -9 -6 3 -7 -1 -4 -10 5 -12 9 -13 20 -4 8 7 17 9 21 5 3 -3 1
-6 -5 -6 -6 0 -14 -9 -17 -20 -4 -11 -11 -18 -16 -15 -5 3 -6 -1 -2 -10 3 -10
0 -21 -8 -27 -11 -8 -10 -9 4 -4 21 7 20 -23 -2 -40 -11 -9 -11 -11 3 -11 15
0 21 10 17 31 -1 5 6 3 16 -4 28 -22 29 -24 11 -17 -21 7 -23 -3 -5 -23 10
-12 9 -12 -5 -1 -11 8 -18 9 -18 3 0 -6 8 -16 18 -21 9 -6 11 -11 5 -11 -14 0
-18 -26 -5 -33 4 -2 1 -2 -5 -1 -11 3 -18 -15 -14 -38 0 -5 -3 -8 -7 -8 -4 0
-8 -8 -8 -19 0 -10 6 -17 12 -14 7 2 15 -1 20 -8 4 -8 3 -10 -4 -5 -7 4 -12 2
-12 -4 0 -6 -5 -8 -12 -4 -7 4 -8 3 -4 -5 4 -6 13 -8 19 -4 8 5 8 2 -1 -9 -7
-9 -9 -24 -5 -34 6 -17 5 -18 -13 -4 -18 14 -18 14 -5 -2 7 -10 11 -24 8 -32
-4 -10 -1 -13 9 -9 10 4 12 0 8 -11 -3 -9 -10 -13 -15 -10 -5 3 -6 -2 -3 -10
3 -9 9 -14 13 -12 4 3 13 -4 20 -16 10 -16 10 -19 -1 -12 -26 16 -38 13 -28
-6 13 -24 13 -43 0 -35 -7 4 -7 -3 0 -20 13 -34 13 -38 -2 -29 -7 4 -8 3 -4
-5 4 -6 10 -9 14 -7 4 2 16 -3 27 -11 16 -13 17 -15 2 -10 -20 7 -22 -3 -5
-23 10 -11 9 -11 -6 0 -18 14 -19 13 -13 -2 3 -10 2 -18 -3 -18 -6 0 -10 -7
-10 -16 0 -9 -5 -12 -12 -8 -7 5 -8 3 -3 -5 5 -9 12 -7 26 8 23 25 26 25 26 6
0 -8 -4 -12 -9 -9 -4 3 -8 1 -8 -5 0 -5 5 -11 12 -13 7 -3 5 -7 -6 -11 -10 -4
-15 -3 -11 3 4 6 -1 7 -11 3 -11 -4 -13 -8 -6 -11 7 -2 9 -8 6 -14 -4 -6 2 -8
17 -4 13 3 18 3 12 0 -7 -3 -13 -10 -13 -15 0 -6 4 -8 8 -5 5 3 9 -1 9 -8 0
-8 -6 -12 -14 -9 -7 3 -13 9 -13 14 0 5 -5 9 -11 9 -5 0 -7 -5 -3 -11 3 -6 0
-16 -7 -21 -10 -6 -6 -7 11 -2 l25 7 -20 -23 -20 -23 22 12 c32 16 41 14 15
-5 -13 -9 -21 -22 -18 -29 2 -7 -1 -18 -7 -26 -7 -7 0 -5 15 4 19 12 29 14 34
5 4 -6 3 -8 -4 -4 -6 3 -17 -3 -25 -14 -7 -11 -16 -18 -19 -15 -3 3 -4 -6 -2
-21 1 -14 5 -28 8 -31 3 -3 -2 -11 -11 -18 -13 -9 -13 -14 -3 -20 9 -5 11 -4
6 3 -4 7 -2 12 5 12 6 0 17 7 23 16 10 13 12 13 12 -5 0 -11 -4 -17 -8 -15 -4
3 -12 -4 -17 -15 -14 -25 -14 -34 -1 -26 5 3 10 1 10 -5 0 -6 5 -8 12 -4 7 4
8 3 4 -5 -4 -6 -12 -9 -17 -6 -5 4 -9 0 -9 -7 0 -10 -2 -10 -9 1 -7 10 -9 7
-8 -12 1 -14 5 -23 9 -20 5 2 8 -1 8 -7 0 -6 4 -9 9 -5 5 3 13 0 17 -6 4 -8 3
-9 -4 -5 -16 10 -15 -6 0 -24 10 -11 9 -11 -6 0 -17 13 -19 13 -14 0 2 -8 -3
-21 -12 -30 -9 -8 -10 -11 -3 -7 17 12 36 4 39 -16 1 -9 -2 -15 -7 -11 -5 3
-9 1 -9 -5 0 -6 -6 -9 -13 -7 -6 1 -9 1 -5 -1 4 -2 4 -12 1 -21 -6 -15 -5 -15
10 -3 10 8 20 11 24 7 3 -3 1 -6 -5 -6 -6 0 -14 -9 -17 -20 -4 -11 -9 -18 -13
-16 -4 2 -7 -6 -7 -19 0 -13 3 -21 7 -18 13 7 9 -12 -5 -27 -10 -12 -9 -12 5
-1 21 15 24 2 6 -18 -11 -11 -10 -13 3 -8 13 4 13 -1 -4 -34 -14 -29 -16 -43
-8 -53 6 -7 7 -16 3 -21 -4 -4 4 -5 18 -1 14 3 19 3 13 0 -7 -3 -13 -10 -13
-15 0 -6 6 -7 12 -3 8 4 8 2 -1 -7 -10 -11 -15 -11 -18 -1 -7 18 -19 14 -19
-7 0 -11 5 -17 13 -14 9 4 11 0 7 -11 -3 -9 -9 -14 -13 -11 -11 6 -6 -48 6
-70 9 -15 8 -22 -5 -32 -15 -11 -13 -12 9 -4 19 7 26 6 26 -4 0 -7 -7 -11 -16
-8 -13 4 -12 2 2 -10 16 -13 16 -15 2 -21 -9 -3 -13 -2 -10 4 4 6 -1 7 -11 3
-11 -4 -13 -8 -6 -11 7 -2 9 -8 6 -14 -4 -6 2 -8 17 -4 13 3 18 3 12 0 -18 -8
-16 -24 3 -38 13 -10 13 -12 -5 -12 -11 0 -17 5 -14 10 3 5 1 6 -5 2 -8 -5
-10 -2 -6 8 4 10 1 16 -7 16 -7 0 -9 -3 -6 -7 4 -3 2 -12 -5 -20 -6 -8 -7 -13
-2 -12 21 4 26 -2 13 -18 -10 -11 -10 -14 -2 -9 17 9 17 -6 0 -24 -10 -12 -9
-12 6 -1 19 15 24 2 5 -17 -7 -7 -8 -12 -2 -12 5 0 15 5 21 11 8 8 13 7 18 -2
5 -8 4 -10 -3 -5 -12 7 -37 -26 -46 -64 -5 -17 0 -13 14 13 23 42 36 50 18 11
-10 -21 -9 -27 3 -36 11 -8 11 -9 -3 -5 -9 3 -19 -1 -22 -9 -3 -9 -11 -12 -17
-8 -8 4 -9 3 -5 -5 6 -9 11 -9 22 0 11 9 14 9 14 0 0 -7 4 -10 9 -7 5 4 8 -2
7 -11 -3 -19 -26 -31 -26 -13 0 6 5 8 12 4 7 -4 8 -3 4 4 -10 16 -32 5 -32
-17 0 -10 6 -17 12 -14 7 2 15 -1 20 -8 4 -8 3 -10 -4 -5 -7 4 -12 2 -12 -4 0
-6 -4 -9 -8 -6 -4 2 -8 -4 -8 -14 0 -10 3 -17 7 -14 4 2 9 -1 11 -8 3 -9 6 -9
12 0 4 7 2 12 -3 12 -6 0 -11 5 -11 12 0 9 3 9 12 0 14 -14 20 -45 7 -36 -13
8 -11 -10 4 -26 10 -12 9 -12 -5 -2 -12 10 -18 10 -24 1 -4 -7 1 -18 11 -26
19 -13 32 -48 14 -37 -5 3 -9 1 -9 -5 0 -6 -6 -9 -12 -7 -7 1 -10 1 -5 -1 4
-3 4 -9 1 -15 -4 -6 2 -8 17 -4 13 3 18 3 12 0 -7 -3 -13 -10 -13 -15 0 -6 4
-8 8 -5 5 3 9 -1 9 -8 0 -8 -6 -12 -14 -9 -7 3 -13 9 -13 14 0 5 -4 9 -8 9 -4
0 -8 -8 -8 -19 0 -11 5 -17 13 -14 9 4 11 0 7 -11 -5 -13 -2 -15 12 -9 12 4 8
-3 -11 -21 -22 -20 -24 -24 -8 -17 35 17 36 13 6 -15 l-28 -26 29 17 29 17
-19 -25 c-11 -14 -21 -23 -24 -22 -3 2 -6 -5 -6 -16 0 -10 4 -19 8 -19 4 0 8
4 8 8 0 5 6 16 13 26 12 16 13 16 13 -3 0 -11 -4 -17 -8 -15 -4 3 -8 -2 -8
-10 0 -9 -5 -16 -11 -16 -5 0 -7 -5 -4 -10 3 -6 -1 -13 -9 -16 -9 -3 -13 -10
-10 -16 3 -5 13 0 21 11 8 12 19 21 24 21 6 0 3 -7 -5 -16 -18 -17 -19 -24
-10 -48 3 -9 11 -13 17 -9 6 3 7 1 3 -6 -6 -9 -11 -9 -22 0 -16 13 -16 13 -18
-23 -1 -15 2 -24 6 -22 4 3 8 0 8 -6 0 -6 4 -9 9 -5 5 3 13 0 17 -6 4 -8 3 -9
-4 -5 -16 10 -15 -6 1 -24 9 -11 8 -11 -7 0 -17 13 -19 13 -14 0 2 -8 -3 -21
-11 -30 -9 -8 -12 -12 -7 -8 6 5 17 8 25 8 11 0 10 -4 -5 -16 -16 -13 -16 -15
-2 -10 10 3 20 0 24 -6 4 -7 3 -8 -4 -4 -7 4 -12 3 -12 -3 0 -6 -6 -9 -12 -7
-7 1 -10 1 -6 -1 4 -2 4 -12 1 -21 -6 -15 -5 -15 10 -3 10 8 20 11 24 7 3 -3
2 -6 -4 -6 -6 0 -16 -13 -23 -29 -9 -23 -9 -34 1 -53 11 -21 11 -22 -5 -9 -14
12 -16 12 -10 -3 4 -10 14 -16 24 -13 9 2 17 -1 17 -8 0 -13 -25 -13 -47 0
-13 8 -13 6 -1 -8 7 -9 11 -23 8 -31 -4 -10 -1 -13 7 -10 7 3 19 -2 26 -11 7
-9 8 -15 2 -15 -6 0 -13 6 -15 13 -4 9 -6 9 -6 -1 -1 -7 -6 -10 -12 -6 -8 5
-8 1 0 -14 14 -26 14 -35 0 -26 -8 5 -8 1 0 -14 15 -28 14 -45 -1 -36 -10 5
-10 4 -1 -6 10 -11 10 -17 0 -29 -8 -10 -8 -12 -1 -8 7 4 15 0 18 -9 3 -8 2
-12 -4 -9 -6 3 -10 1 -10 -6 0 -7 9 -9 22 -6 20 6 20 5 5 -10 -14 -14 -18 -14
-34 -2 -16 13 -17 12 -4 -3 7 -10 11 -24 8 -32 -4 -10 -1 -13 7 -10 8 3 17 0
22 -7 4 -7 3 -10 -3 -6 -6 4 -14 0 -17 -9 -9 -24 -7 -27 9 -14 9 7 18 10 22 6
3 -3 1 -6 -5 -6 -7 0 -12 -5 -12 -11 0 -5 4 -8 8 -5 5 3 8 -16 8 -41 0 -36 4
-47 17 -49 9 -1 20 2 23 7 3 5 0 8 -7 7 -6 -2 -13 8 -14 21 l-2 23 18 -23 c10
-13 17 -30 14 -36 -2 -7 0 -13 5 -13 6 0 10 8 10 18 1 16 1 16 14 0 14 -19 32
-25 21 -8 -3 6 1 10 10 10 9 0 13 -5 9 -11 -5 -8 -1 -8 14 0 15 8 22 8 25 -2
4 -9 6 -9 6 1 1 6 6 12 12 12 5 0 8 -4 4 -9 -3 -5 -1 -12 4 -15 5 -4 8 2 7 11
-2 13 -12 18 -34 18 -16 0 -34 4 -38 8 -5 4 -1 5 8 2 9 -4 19 -2 23 4 4 8 15
7 33 -2 16 -8 38 -11 52 -7 39 10 52 2 38 -23 -8 -17 -5 -16 15 5 30 32 61 29
52 -6 -2 -11 -2 -15 1 -8 3 6 12 12 20 12 8 0 14 5 14 11 0 5 -5 7 -12 3 -6
-4 -8 -3 -4 4 3 5 0 13 -6 15 -7 3 -8 6 -3 6 18 1 34 -15 38 -37 2 -12 7 -25
12 -29 4 -5 5 -3 1 4 -3 6 -2 14 3 18 6 3 8 12 4 20 -3 8 0 15 7 15 6 0 8 -4
5 -10 -6 -9 -1 -11 38 -14 6 -1 16 -5 20 -11 5 -6 7 -4 4 5 -2 8 -11 14 -20
12 -8 -1 -18 1 -20 6 -3 4 11 7 31 6 53 -3 54 -3 48 -13 -3 -5 0 -14 8 -20 11
-9 15 -9 18 1 4 10 9 10 24 -2 18 -14 18 -14 5 3 -19 24 -10 29 46 32 27 1 42
0 36 -2 -16 -6 -17 -33 -2 -33 5 0 7 5 4 10 -3 6 1 10 10 10 9 0 13 -5 9 -11
-5 -8 -1 -8 13 0 11 6 23 7 27 4 12 -12 6 13 -6 27 -11 12 -10 12 5 0 13 -9
21 -10 29 -2 14 14 38 4 38 -17 1 -14 2 -14 14 2 14 18 32 24 21 7 -3 -5 1
-10 10 -10 9 0 13 -5 9 -11 -5 -8 -1 -8 14 0 22 12 57 7 78 -10 9 -7 14 -8 14
-1 0 6 -5 12 -12 14 -8 3 -8 9 1 24 9 13 11 14 7 2 -3 -9 2 -19 10 -22 21 -8
24 -8 24 5 0 5 -5 7 -12 3 -7 -5 -8 -3 -3 6 6 10 12 7 24 -9 16 -21 31 -19 31
3 0 6 -5 4 -10 -4 -6 -9 -10 -10 -10 -3 0 6 4 14 9 17 11 7 33 -18 24 -27 -3
-4 -1 -7 6 -7 8 0 11 7 7 15 -5 14 7 20 29 15 6 -1 15 -3 22 -3 7 0 9 -5 6
-10 -4 -6 -1 -7 7 -2 8 5 18 2 25 -9 11 -15 13 -15 19 -1 3 9 10 13 16 10 5
-3 10 -2 10 4 0 5 -8 15 -17 20 -10 6 -13 10 -8 11 19 0 34 -16 38 -38 2 -12
7 -25 12 -29 4 -5 5 -3 1 4 -3 6 -2 14 3 18 6 3 8 12 4 20 -3 8 0 15 7 15 6 0
8 -5 5 -10 -6 -9 -1 -11 38 -14 6 -1 15 -5 19 -11 5 -6 8 -5 8 3 0 7 5 10 10
7 6 -3 10 -1 10 5 0 6 -12 8 -29 5 -17 -3 -32 -2 -35 3 -2 4 10 7 27 6 52 -2
58 -4 53 -13 -3 -5 0 -14 8 -20 10 -9 15 -8 19 3 7 17 40 14 63 -5 10 -8 14
-8 14 0 0 6 7 11 15 11 8 0 15 4 15 8 0 4 -9 8 -19 8 -11 0 -17 -4 -15 -8 3
-4 0 -8 -5 -8 -13 0 -14 10 -1 30 7 12 10 12 10 1 0 -7 6 -11 15 -7 9 3 19 -3
25 -15 11 -20 30 -18 30 4 0 7 -4 6 -10 -3 -6 -9 -10 -10 -10 -3 0 15 15 25
24 16 10 -10 48 -14 42 -5 -9 16 47 5 59 -11 13 -18 30 -24 20 -7 -3 6 1 10
10 10 9 0 13 -5 9 -11 -5 -8 -2 -9 12 -1 15 8 23 7 38 -6 18 -16 18 -16 5 5
-9 14 -20 21 -31 18 -9 -3 -19 -2 -21 2 -6 10 99 10 109 1 3 -4 -6 -5 -20 -4
-14 2 -26 -1 -26 -6 0 -5 14 -7 30 -4 17 2 30 0 30 -5 0 -5 5 -9 11 -9 5 0 7
5 4 10 -3 6 1 10 10 10 9 0 13 -5 9 -11 -5 -8 -1 -8 14 0 14 7 22 7 25 1 3 -6
4 -5 3 2 -2 7 -10 12 -19 10 -8 -1 -18 1 -20 6 -3 4 11 7 31 6 53 -3 54 -3 48
-13 -3 -5 0 -14 8 -20 10 -9 15 -8 19 3 4 11 1 13 -10 9 -11 -4 -14 -2 -9 5 4
7 14 12 22 12 8 0 14 6 14 13 0 8 4 7 10 -3 5 -8 10 -19 10 -25 0 -5 -5 -3
-10 5 -8 12 -9 10 -7 -7 2 -12 6 -25 10 -28 4 -3 5 -2 2 2 -6 8 14 33 27 33 5
0 7 -4 3 -9 -3 -5 -1 -12 4 -16 6 -3 8 3 6 13 -2 10 1 25 7 33 8 11 9 10 4 -3
-3 -10 -1 -18 5 -18 6 0 7 -6 3 -12 -6 -10 -5 -10 8 0 17 14 59 12 70 -3 5 -6
8 -5 8 3 0 7 5 10 10 7 6 -3 10 -1 10 5 0 6 -12 8 -29 5 -17 -3 -32 -2 -35 3
-2 4 10 7 27 6 52 -2 58 -4 53 -13 -3 -5 1 -14 9 -21 11 -9 15 -9 15 -1 0 7 5
9 10 6 6 -3 10 -1 10 5 0 7 -8 9 -22 5 -16 -5 -20 -4 -13 3 10 10 36 16 63 13
10 -1 10 -6 1 -23 -10 -20 -8 -19 14 4 25 27 57 30 57 6 0 -7 -4 -7 -13 0 -9
8 -17 8 -27 0 -12 -8 -12 -9 2 -4 10 3 20 1 24 -5 4 -7 10 -6 18 0 7 6 16 8
19 4 4 -3 7 -1 7 5 0 6 -8 16 -17 22 -17 11 -17 11 0 6 10 -3 21 -6 23 -6 2 0
4 -7 4 -16 0 -13 5 -11 21 7 11 13 18 18 14 11 -3 -6 1 -15 9 -18 9 -3 13 -11
10 -16 -4 -6 1 -6 13 1 15 7 23 7 32 -2 10 -9 15 -8 27 7 10 14 14 16 14 5 1
-8 8 -2 16 14 16 29 27 37 17 11 -4 -10 -1 -15 8 -14 35 5 40 1 28 -22 -9 -17
-3 -13 21 10 25 25 35 30 41 20 5 -7 9 -17 9 -23 0 -5 -5 -3 -10 5 -8 13 -12
12 -27 -4 -14 -16 -14 -17 -1 -7 11 8 18 9 23 1 5 -8 11 -8 19 -1 7 6 16 8 19
4 4 -3 7 -1 7 5 0 6 -8 16 -17 21 -10 6 -13 11 -6 11 6 0 15 -5 19 -11 4 -8 9
-7 16 2 6 10 7 7 3 -10 -5 -16 -4 -21 4 -17 6 4 11 1 11 -6 0 -10 2 -10 8 0 9
14 53 12 65 -3 5 -6 7 -4 4 5 -2 8 -11 14 -20 12 -8 -1 -18 1 -20 6 -3 4 11 7
31 6 53 -3 52 -3 49 -16 -1 -7 8 -13 21 -14 12 -1 22 3 22 8 0 5 -10 6 -22 3
-16 -5 -20 -4 -13 3 6 6 30 13 55 15 25 3 39 3 32 0 -7 -3 -17 -14 -23 -26
-10 -22 -10 -22 6 -2 17 22 21 22 49 -3 19 -17 19 -17 0 13 -10 16 -13 26 -6
21 7 -4 19 -3 26 3 9 8 18 7 31 -3 18 -13 17 -13 -8 -11 -15 2 -27 -1 -27 -7
0 -5 10 -8 23 -6 13 2 21 -2 20 -9 -2 -7 2 -13 7 -13 10 0 14 14 11 38 -1 6 3
12 9 12 6 0 8 -4 5 -10 -6 -9 -1 -11 38 -14 6 -1 16 -5 20 -11 5 -6 7 -4 4 5
-2 8 -11 14 -20 12 -8 -1 -18 1 -20 6 -4 6 34 8 76 3 4 -1 3 -11 -3 -23 l-11
-23 17 22 c9 13 24 23 32 23 13 0 13 -2 -3 -13 -14 -11 -15 -16 -5 -22 9 -6
11 -4 5 5 -6 10 -4 12 9 7 10 -4 15 -3 11 3 -3 6 -1 10 5 10 6 0 9 3 7 7 -7
11 60 9 70 -1 5 -5 2 -6 -6 -1 -9 5 -12 4 -7 -3 4 -7 2 -12 -4 -12 -6 0 -9 -4
-5 -10 8 -13 43 22 37 38 -2 6 1 12 7 12 6 0 10 -3 10 -7 -3 -19 2 -33 12 -33
6 0 8 9 3 23 l-6 22 18 -21 c15 -17 22 -19 31 -9 7 7 8 17 2 26 -8 13 -13 5
-10 -14 1 -5 -3 -6 -9 -2 -8 5 -7 12 2 22 7 9 11 17 8 19 -3 1 -1 6 3 11 5 4
7 1 5 -7 -2 -8 3 -14 10 -12 8 1 11 -2 7 -8 -3 -5 -1 -10 4 -10 14 0 14 17 0
25 -7 5 -5 15 6 32 16 24 16 25 -7 18 -22 -7 -22 -7 -3 8 11 8 22 14 26 12 3
-2 5 6 4 18 -1 12 -7 22 -12 22 -6 0 -15 4 -20 9 -5 5 -3 6 5 2 6 -4 12 -2 12
4 0 6 5 8 12 4 7 -4 8 -3 4 5 -4 6 -12 8 -18 5 -5 -4 -2 6 7 20 18 26 17 27
-3 33 -12 3 -19 10 -16 15 3 5 11 7 18 5 6 -3 12 4 12 14 0 13 -4 15 -12 8 -8
-7 -15 -6 -20 2 -4 7 -3 9 2 6 6 -3 16 4 24 16 12 20 12 21 -3 8 -19 -15 -23
-1 -5 17 7 7 9 12 5 12 -4 0 -3 9 3 20 9 17 8 19 -7 13 -15 -5 -16 -3 -5 8 17
19 15 34 -3 19 -13 -11 -14 -10 -8 6 6 17 5 18 -13 4 -18 -14 -18 -14 -5 2 7
10 17 16 21 13 4 -3 11 2 14 11 9 24 7 29 -6 16 -20 -20 -29 -14 -11 7 9 11
19 18 23 16 4 -2 6 6 5 18 -1 16 -8 22 -23 21 -12 -1 -19 3 -16 7 3 5 10 7 15
4 5 -4 9 -1 9 5 0 6 5 8 12 4 7 -4 8 -3 4 5 -4 6 -13 8 -19 5 -8 -5 -8 -3 1 7
17 18 15 34 -2 20 -11 -9 -16 -9 -22 0 -4 8 -3 9 4 5 18 -11 14 15 -4 28 -13
10 -13 12 5 12 11 0 18 -4 15 -7 -2 -4 0 -10 5 -13 5 -4 12 -2 15 3 4 5 2 12
-4 16 -7 4 -7 12 0 25 8 15 7 18 -3 14 -8 -3 -20 3 -28 13 -12 16 -12 17 2 6
13 -11 18 -9 27 12 11 23 2 42 -16 32 -4 -3 -7 8 -7 23 -1 16 3 26 7 24 5 -3
6 -9 3 -14 -3 -4 1 -10 8 -13 7 -3 13 3 13 13 0 10 -4 17 -7 14 -4 -2 -6 8 -4
23 2 16 4 28 5 28 1 0 3 8 5 18 2 9 -1 15 -6 11 -5 -3 -7 -9 -4 -14 6 -9 -25
-23 -33 -15 -3 3 0 5 6 5 7 0 12 7 12 15 0 8 -6 15 -12 15 -10 0 -9 3 1 9 8 5
10 14 6 21 -6 9 -4 11 5 5 10 -6 12 -4 6 10 -6 18 -6 18 16 -1 17 -14 19 -14
9 -2 -7 9 -10 21 -7 26 3 5 -7 7 -22 5 -25 -4 -26 -3 -7 8 29 19 45 36 38 43
-3 3 -11 -2 -18 -11 -11 -14 -12 -14 -18 1 -4 9 -3 15 1 12 4 -3 14 5 22 17
11 19 11 20 -1 11 -11 -9 -17 -8 -29 4 -13 14 -12 15 3 9 9 -3 17 -2 17 4 0 6
5 7 12 3 7 -4 8 -3 4 5 -4 6 -11 9 -16 6 -5 -3 -12 0 -16 6 -4 8 -3 9 4 5 7
-4 12 -3 12 3 0 5 -5 13 -10 16 -6 4 -8 10 -5 15 3 5 1 20 -5 32 -11 22 -11
22 5 3 8 -11 13 -25 10 -33 -3 -8 0 -10 7 -6 6 4 8 3 5 -3 -4 -6 1 -17 10 -24
15 -12 16 -12 8 1 -5 8 -10 20 -11 25 -1 6 -6 19 -10 29 -5 14 -4 17 5 11 10
-6 11 -3 2 14 -9 16 -9 26 0 42 8 15 8 19 0 15 -6 -4 -11 -3 -11 3 0 5 6 12
12 14 8 4 9 6 2 6 -6 1 -17 -6 -24 -14 -9 -10 -9 -15 -1 -15 6 0 11 -4 11 -8
0 -5 -7 -9 -15 -9 -8 0 -13 3 -10 5 3 3 0 11 -7 19 -9 11 -8 13 2 11 9 -2 15
6 16 19 1 13 7 29 13 37 6 8 11 18 10 22 -1 5 0 11 1 14 1 3 3 14 4 26 2 17
-2 20 -22 18 -13 -1 -21 1 -17 4 4 4 12 7 17 7 6 0 13 6 16 14 3 8 0 11 -7 7
-6 -4 -11 -2 -11 5 0 8 -5 7 -17 -2 -16 -13 -17 -12 -4 3 7 10 17 16 21 13 4
-3 11 2 14 11 9 24 7 29 -6 16 -20 -20 -29 -14 -11 7 9 11 19 18 23 16 4 -2 6
6 5 18 -1 16 -8 22 -23 21 -12 -1 -19 3 -16 7 3 5 10 6 16 3 7 -5 9 -2 5 8 -3
9 0 21 6 27 8 8 8 11 -1 11 -6 0 -15 -8 -21 -17 -9 -16 -10 -16 -8 4 0 12 5
19 9 17 16 -10 7 19 -9 33 -10 7 -13 13 -8 12 22 -3 27 2 15 16 -11 13 -10 14
4 9 11 -4 15 -13 10 -26 -4 -14 -2 -18 5 -14 7 5 9 1 5 -8 -3 -9 -2 -16 3 -16
4 0 8 17 8 39 0 23 -4 37 -11 34 -6 -2 -17 4 -25 14 -12 16 -12 17 2 6 13 -11
18 -9 28 13 6 15 7 23 1 19 -5 -3 -10 -2 -10 4 0 5 6 12 13 15 6 3 1 3 -13 0
l-25 -6 23 21 c24 24 31 41 8 22 -11 -9 -16 -9 -22 0 -4 7 -3 9 2 6 6 -3 16 4
24 16 12 20 12 21 -3 8 -19 -15 -23 -1 -5 17 14 14 20 44 7 36 -5 -3 -7 -9 -4
-14 6 -9 -25 -23 -33 -15 -3 3 0 5 6 5 7 0 12 7 12 15 0 8 -6 15 -12 15 -10 0
-9 3 1 9 8 5 10 14 6 21 -5 9 -4 11 3 6 7 -4 12 -2 12 5 0 8 5 7 18 -2 15 -13
16 -12 3 3 -7 10 -18 15 -25 12 -6 -3 -2 2 9 10 18 16 18 16 -15 11 -19 -3
-28 -2 -20 2 18 10 24 74 7 86 -8 6 -6 7 6 3 17 -5 22 4 17 33 -1 13 1 13 17
1 16 -12 16 -12 5 0 -7 8 -18 15 -25 15 -7 1 -11 7 -9 13 1 7 -3 23 -8 35 -11
21 -11 21 5 2 8 -11 13 -25 11 -32 -3 -7 1 -10 10 -6 11 4 12 9 5 16 -14 14
-14 30 0 21 8 -5 8 -1 0 13 -7 14 -7 24 2 33 10 12 9 12 -5 1 -10 -7 -15 -17
-12 -22 3 -5 -3 -6 -12 -2 -11 4 -13 8 -6 11 7 2 12 8 12 13 0 6 -5 7 -12 3
-6 -4 -8 -3 -4 4 3 6 -2 15 -11 21 -10 6 -13 11 -6 11 6 0 15 -5 18 -11 5 -6
11 -4 19 7 8 11 18 14 26 9 9 -6 11 -4 5 4 -4 7 -16 11 -26 8 -10 -3 -22 0
-26 5 -3 7 -1 8 5 4 7 -4 12 -2 12 3 0 6 -5 11 -12 11 -6 0 -8 3 -5 6 4 4 13
1 22 -6 13 -11 14 -10 9 5 -5 13 -4 16 4 11 8 -5 10 -1 5 10 -5 13 -3 15 7 9
9 -6 11 -4 5 5 -6 10 -11 9 -22 -5 -13 -18 -13 -18 -14 1 -1 10 0 25 1 33 1 8
-4 18 -12 23 -10 7 -9 8 5 4 9 -3 17 -1 17 5 0 6 5 7 12 3 7 -4 8 -3 4 5 -4 6
-11 9 -16 6 -5 -3 -12 0 -16 6 -4 8 -3 9 4 5 7 -4 12 -2 12 5 0 8 5 7 18 -2
15 -13 16 -12 3 3 -7 10 -17 16 -21 13 -5 -3 -12 0 -16 6 -4 8 -3 9 4 5 7 -4
12 -2 12 4 0 6 6 8 13 4 9 -6 9 -4 0 7 -16 16 -17 33 -2 23 8 -4 8 0 0 15 -9
15 -9 27 -1 41 9 17 7 22 -12 30 -20 7 -13 14 12 12 3 0 6 8 6 18 0 10 -4 16
-8 14 -13 -8 -9 11 5 26 10 12 9 12 -5 1 -20 -15 -25 -2 -6 17 6 6 12 20 13
30 1 14 -5 18 -23 16 -13 -1 -21 1 -17 4 4 4 12 7 17 7 6 0 13 6 16 14 3 8 0
11 -7 7 -6 -4 -11 -2 -11 4 0 6 -5 8 -12 4 -7 -4 -8 -3 -4 5 4 6 11 9 16 6 4
-3 11 2 14 11 9 24 7 29 -6 16 -20 -20 -29 -14 -11 7 9 11 19 18 23 16 4 -2 6
6 5 18 -1 13 -11 24 -26 28 -21 6 -21 7 -4 9 11 1 22 2 25 2 3 0 6 8 6 19 0
18 -2 18 -12 4 -10 -14 -12 -13 -17 5 -3 11 -1 18 4 14 5 -3 9 0 9 6 0 6 4 9
8 6 4 -2 8 4 8 14 0 11 -5 16 -14 12 -11 -4 -10 2 3 22 16 25 17 26 0 20 -16
-7 -16 -5 0 26 9 18 12 29 6 26 -6 -4 -11 -3 -11 3 0 5 6 12 13 15 6 3 1 3
-13 0 l-25 -6 23 21 c24 24 31 41 8 22 -11 -9 -16 -9 -22 0 -4 7 -3 9 2 6 6
-3 16 4 24 16 12 20 12 21 -3 8 -10 -7 -17 -9 -17 -3 0 5 6 15 14 21 14 12 15
41 0 76 -7 18 -6 19 11 5 18 -15 19 -14 2 10 -19 27 -22 44 -7 35 6 -4 7 1 3
11 -4 12 -3 15 5 10 8 -5 10 -2 5 10 -5 14 -8 13 -18 -6 l-12 -22 -6 22 c-3
12 -3 19 0 16 7 -6 32 24 33 38 0 6 -6 2 -12 -7 -12 -16 -14 -16 -27 5 -13 21
-13 22 2 9 14 -11 17 -11 18 0 1 8 1 17 0 22 0 4 4 7 10 7 6 0 3 7 -5 16 -9 8
-14 20 -11 25 4 5 -3 5 -17 0 -13 -5 -22 -14 -21 -20 2 -6 -4 -8 -14 -4 -11 4
-13 8 -5 11 19 6 14 21 -5 17 -10 -1 -28 1 -39 6 -12 4 -26 3 -32 -3 -6 -6
-12 -6 -17 3 -6 8 -4 10 5 4 9 -5 11 -4 6 3 -4 7 -2 12 4 12 6 0 9 4 5 10 -8
13 -43 -22 -37 -37 2 -7 0 -13 -5 -13 -5 0 -10 6 -11 13 -2 26 -8 47 -17 54
-4 4 -5 2 -1 -4 4 -8 2 -13 -6 -13 -8 0 -9 -3 -3 -8 6 -4 11 -13 13 -21 2 -11
0 -12 -11 -3 -8 7 -18 8 -22 4 -5 -4 -5 1 -2 10 3 10 2 20 -2 23 -5 3 -8 -8
-7 -23 1 -16 -3 -29 -10 -29 -6 0 -9 8 -7 17 2 9 -4 23 -13 31 -15 12 -16 12
-9 0 6 -11 3 -13 -13 -9 -15 4 -19 2 -15 -8 3 -8 9 -12 13 -9 4 3 11 -2 14
-11 4 -10 2 -13 -7 -7 -6 4 -28 8 -47 9 -19 1 -39 3 -44 3 -5 1 -2 9 5 18 12
14 12 16 0 8 -8 -4 -27 -9 -42 -10 -21 -2 -26 1 -22 14 3 10 2 12 -4 5 -15
-19 -40 -23 -62 -8 -11 8 -21 11 -21 5 0 -11 -40 -8 -61 4 -8 5 -11 5 -7 0 9
-9 -9 -35 -24 -35 -6 0 -4 8 3 18 12 15 12 16 -2 5 -12 -10 -21 -9 -43 2 -24
13 -27 13 -17 1 10 -12 6 -14 -24 -11 -20 2 -43 9 -51 16 -11 9 -14 9 -14 0 0
-7 -4 -10 -9 -6 -5 3 -12 1 -16 -5 -4 -6 -11 -8 -16 -4 -5 3 -7 9 -5 13 3 4
-1 8 -9 8 -8 0 -13 -3 -12 -6 1 -3 -6 -17 -16 -31 -19 -27 -23 -20 -6 12 9 16
8 19 -2 13 -7 -5 -25 -9 -40 -10 -21 -2 -26 1 -22 14 4 12 3 13 -4 3 -6 -7
-20 -14 -31 -15 -20 -1 -26 -9 -24 -28 1 -3 -6 -6 -14 -6 -7 0 -14 4 -14 9 0
4 5 8 10 8 14 0 13 27 -2 36 -7 5 -9 2 -5 -9 3 -9 -1 -18 -10 -21 -11 -5 -14
-2 -9 9 3 9 2 13 -4 10 -5 -3 -20 -1 -32 6 l-23 11 23 -21 c12 -12 22 -24 22
-26 0 -9 -35 9 -43 22 -5 7 -13 10 -19 7 -6 -4 -24 -8 -39 -9 -21 -2 -26 1
-22 14 4 14 3 14 -6 -1 -12 -18 -43 -17 -67 3 -11 9 -14 9 -14 -1 0 -7 -7 -10
-14 -7 -10 4 -13 1 -9 -8 3 -8 9 -13 13 -10 4 3 11 -2 14 -10 4 -12 1 -13 -12
-7 -9 5 -34 8 -55 7 -21 0 -40 2 -43 6 -2 3 14 5 36 4 24 -2 37 1 34 7 -4 5
-15 7 -26 5 -11 -3 -21 0 -24 8 -4 11 -9 10 -23 -3 -10 -9 -16 -23 -13 -29 2
-7 0 -13 -5 -13 -5 0 -10 6 -11 13 -2 25 -8 47 -15 52 -4 3 -5 2 -2 -2 3 -3
-1 -13 -8 -21 -6 -9 -7 -13 -1 -9 6 3 11 0 11 -8 0 -10 -4 -12 -12 -5 -7 5
-16 6 -20 2 -5 -4 -5 1 -2 10 3 10 2 20 -2 23 -5 3 -8 -8 -7 -23 1 -16 -3 -29
-10 -29 -6 0 -9 8 -7 17 2 9 -4 23 -13 31 -15 12 -16 12 -9 0 6 -11 3 -13 -13
-9 -12 4 -20 2 -16 -3 3 -5 0 -9 -6 -9 -6 0 -8 -4 -5 -10 4 -6 -2 -7 -18 -1
-16 6 -28 6 -35 -1 -6 -6 -12 -6 -17 3 -6 8 -4 10 5 4 9 -5 11 -4 6 3 -4 7 -2
12 4 12 6 0 8 5 4 11 -5 8 -10 6 -16 -5 -5 -9 -14 -14 -20 -10 -6 4 -8 -1 -3
-15 4 -13 2 -21 -5 -21 -6 0 -9 3 -6 8 2 4 -1 18 -8 31 -11 19 -14 20 -19 8
-7 -18 -40 -15 -65 5 -13 11 -14 11 -7 -1 6 -11 3 -13 -13 -9 -15 4 -19 2 -15
-8 3 -8 9 -12 13 -9 4 3 11 -2 14 -10 4 -12 2 -13 -12 -7 -9 5 -34 9 -54 8
-32 -2 -35 0 -27 15 6 12 5 20 -1 24 -6 4 -9 1 -8 -5 2 -7 -11 -13 -29 -15
-25 -2 -30 1 -26 14 4 14 3 14 -6 -1 -12 -18 -43 -17 -67 3 -9 7 -14 8 -14 1
0 -6 5 -12 12 -14 8 -3 8 -9 -1 -24 -11 -17 -12 -17 -7 0 5 14 2 17 -10 12
-11 -4 -15 -2 -11 8 4 10 1 13 -9 9 -8 -3 -13 -12 -10 -19 4 -10 -1 -11 -22
-3 -15 6 -28 10 -30 9 -2 -1 -6 1 -10 4 -3 3 0 6 7 6 7 0 9 5 6 11 -5 6 -12 4
-20 -8 -13 -17 -16 -17 -43 -2 -35 19 -57 10 -49 -20 4 -18 2 -19 -14 -10 -10
5 -19 15 -19 22 0 8 4 7 11 -3 8 -12 10 -12 7 -1 -2 8 -16 15 -30 15 -17 1
-24 -3 -21 -11 3 -7 9 -11 13 -8 4 3 11 -2 14 -10 4 -12 2 -13 -12 -6 -9 5
-34 8 -55 7 -26 -2 -41 2 -44 11 -4 10 -14 12 -29 9 -19 -5 -22 -3 -18 11 5
17 5 17 -5 1 -12 -18 -43 -17 -67 3 -9 7 -14 8 -14 1 0 -11 -39 -10 -61 3 -8
4 -4 -2 9 -14 12 -12 22 -24 22 -26 0 -10 -36 10 -50 28 -15 18 -16 18 -17 -4
-2 -19 0 -20 7 -9 6 9 10 10 10 3 0 -20 -20 -26 -26 -8 -5 11 -14 15 -30 11
-19 -5 -22 -3 -18 11 5 17 5 17 -5 1 -12 -18 -43 -17 -67 3 -9 7 -14 8 -14 1
0 -6 5 -12 12 -14 8 -3 8 -9 -1 -24 -10 -15 -11 -15 -7 -1 3 11 0 17 -10 17
-9 0 -12 5 -8 12 4 7 3 8 -4 4 -6 -4 -22 -2 -34 5 -13 6 -20 8 -16 4 4 -5 2
-15 -5 -24 -11 -14 -10 -15 7 -1 15 12 20 12 23 2 3 -6 9 -10 13 -7 5 3 11 2
13 -3 7 -10 -80 -8 -90 3 -5 4 -2 5 6 0 9 -5 12 -4 7 3 -4 7 -2 12 4 12 6 0 9
4 5 10 -8 13 -43 -22 -37 -37 2 -7 0 -13 -5 -13 -5 0 -10 6 -11 13 -2 25 -8
47 -16 54 -4 4 -6 3 -4 -2z m-212 -49 c0 -1 -11 -2 -24 -1 -29 0 -41 10 -31
24 4 7 14 5 31 -5 13 -9 24 -17 24 -18z m960 0 c0 -1 -11 -2 -24 -1 -29 0 -41
10 -31 24 4 7 14 5 31 -5 13 -9 24 -17 24 -18z m-810 13 c0 -5 -5 -7 -12 -3
-7 5 -9 2 -6 -8 4 -8 0 -15 -7 -15 -16 0 -15 18 0 29 14 11 25 10 25 -3z m67
-4 c0 -8 -4 -12 -9 -9 -5 3 -6 10 -3 15 9 13 12 11 12 -6z m413 7 c0 -4 -5
-14 -11 -22 -9 -13 -10 -12 -5 2 3 12 1 15 -10 11 -7 -3 -14 -1 -14 4 0 5 9 9
20 10 11 1 20 -1 20 -5z m787 -7 c0 -8 -4 -12 -9 -9 -5 3 -6 10 -3 15 9 13 12
11 12 -6z m413 5 c0 -5 -2 -10 -4 -10 -3 0 -8 5 -11 10 -3 6 -1 10 4 10 6 0
11 -4 11 -10z m140 0 c0 -5 -5 -10 -11 -10 -5 0 -7 5 -4 10 3 6 8 10 11 10 2
0 4 -4 4 -10z m294 -3 c10 10 46 14 46 5 0 -4 -4 -13 -9 -20 -6 -11 -10 -10
-15 4 -5 12 -10 14 -17 7 -13 -13 -51 -5 -43 9 3 5 11 5 18 -1 7 -6 16 -8 20
-4z m229 -1 c4 -10 0 -12 -14 -9 -10 3 -16 9 -13 14 8 13 21 11 27 -5z m57 6
c0 -4 -5 -14 -11 -22 -9 -13 -10 -12 -5 2 3 12 1 15 -10 11 -7 -3 -14 -1 -14
4 0 5 9 9 20 10 11 1 20 -1 20 -5z m-2520 -12 c0 -5 -5 -10 -11 -10 -5 0 -7 5
-4 10 3 6 8 10 11 10 2 0 4 -4 4 -10z m393 -7 c-3 -7 -6 -13 -8 -13 -2 0 -5 6
-8 13 -3 8 1 14 8 14 7 0 11 -6 8 -14z m67 -4 c0 -5 -4 -9 -8 -9 -5 0 -9 7 -9
15 0 8 4 12 9 9 4 -3 8 -9 8 -15z m173 4 c-3 -7 -6 -13 -8 -13 -2 0 -5 6 -8
13 -3 8 1 14 8 14 7 0 11 -6 8 -14z m67 -4 c0 -5 -4 -9 -8 -9 -5 0 -9 7 -9 15
0 8 4 12 9 9 4 -3 8 -9 8 -15z m260 11 c0 -5 -5 -10 -11 -10 -5 0 -7 5 -4 10
3 6 8 10 11 10 2 0 4 -4 4 -10z m153 -7 c-3 -7 -6 -13 -8 -13 -2 0 -5 6 -8 13
-3 8 1 14 8 14 7 0 11 -6 8 -14z m70 0 c-3 -7 -8 -13 -12 -13 -4 0 -8 6 -8 13
0 8 6 14 13 14 7 0 10 -6 7 -14z m170 0 c-3 -7 -6 -13 -8 -13 -2 0 -5 6 -8 13
-3 8 1 14 8 14 7 0 11 -6 8 -14z m190 4 c3 -8 0 -14 -7 -14 -7 0 -13 6 -13 14
0 7 4 13 8 13 4 0 9 -6 12 -13z m290 -4 c-3 -7 -6 -13 -8 -13 -2 0 -5 6 -8 13
-3 8 1 14 8 14 7 0 11 -6 8 -14z m37 2 c7 -9 8 -15 2 -15 -5 0 -12 7 -16 15
-3 8 -4 15 -2 15 2 0 9 -7 16 -15z m33 -2 c-3 -7 -6 -13 -8 -13 -2 0 -5 6 -8
13 -3 8 1 14 8 14 7 0 11 -6 8 -14z m207 2 c9 -10 9 -15 1 -15 -6 0 -11 5 -11
10 0 6 -5 10 -11 10 -5 0 -7 -4 -4 -10 3 -6 -1 -7 -10 -3 -13 5 -14 7 -3 14
18 12 24 11 38 -6z m33 -2 c-3 -7 -6 -13 -8 -13 -2 0 -5 6 -8 13 -3 8 1 14 8
14 7 0 11 -6 8 -14z m189 10 c-6 -3 -10 -8 -8 -12 3 -4 -1 -8 -9 -8 -26 0 -23
22 4 23 14 1 20 -1 13 -3z m46 0 c-10 -2 -18 -9 -18 -14 0 -5 -5 -9 -11 -9 -8
0 -8 5 1 15 7 8 20 14 29 14 13 -1 13 -2 -1 -6z m214 -10 c9 -10 9 -13 0 -13
-7 0 -12 5 -12 10 0 6 -5 10 -11 10 -5 0 -8 -4 -5 -8 3 -5 -1 -9 -9 -9 -8 0
-16 5 -18 12 -6 15 39 13 55 -2z m31 0 c-3 -7 -6 -13 -8 -13 -2 0 -5 6 -8 13
-3 8 1 14 8 14 7 0 11 -6 8 -14z m-408 -15 c5 4 5 1 1 -6 -6 -10 -11 -10 -22
-1 -8 6 -14 14 -14 16 0 3 6 0 13 -6 8 -6 18 -7 22 -3z m806 -5 c0 -5 2 -16 4
-26 2 -9 -1 -15 -6 -11 -5 3 -7 10 -4 15 4 5 1 9 -4 9 -6 0 -11 5 -11 10 0 11
20 14 21 3z m-3324 -40 c0 -9 -4 -10 -14 -2 -7 6 -13 12 -13 14 0 1 6 2 13 2
8 0 14 -6 14 -14z m3328 -114 c11 -16 1 -19 -13 -3 -7 8 -8 14 -3 14 5 0 13
-5 16 -11z m-3320 -42 c6 -5 3 -7 -7 -3 -20 6 -23 -4 -8 -22 5 -7 3 -6 -5 1
-9 8 -13 21 -9 31 3 9 9 13 13 9 3 -4 11 -12 16 -16z m3326 -5 c7 -35 4 -52
-9 -57 -8 -3 -17 -3 -20 0 -3 3 0 5 6 5 7 0 12 7 12 15 0 8 -6 15 -12 15 -9 0
-8 3 2 10 13 8 12 11 -5 25 -20 16 -19 16 3 5 12 -6 23 -14 23 -18z m-26 -122
c3 -5 1 -10 -4 -10 -6 0 -11 5 -11 10 0 6 2 10 4 10 3 0 8 -4 11 -10z m-3309
-76 c0 -13 -5 -20 -12 -17 -15 6 -14 40 1 40 6 0 11 -10 11 -23z m3334 16 c0
-5 -7 -7 -15 -4 -8 4 -15 8 -15 10 0 2 7 4 15 4 8 0 15 -4 15 -10z m-5 -58
c-3 -3 -11 0 -18 7 -9 10 -8 11 6 5 10 -3 15 -9 12 -12z m0 -40 c-3 -3 -11 0
-18 7 -9 10 -8 11 6 5 10 -3 15 -9 12 -12z m-3333 1 c-10 -4 -10 -8 0 -21 12
-15 11 -16 -4 -3 -19 14 -15 32 5 30 8 0 8 -2 -1 -6z m3303 -12 c3 -5 2 -12
-3 -15 -5 -3 -9 1 -9 9 0 17 3 19 12 6z m-3305 -36 c11 -13 10 -14 -4 -9 -9 3
-16 10 -16 15 0 13 6 11 20 -6z m10 -35 c0 -5 -5 -10 -11 -10 -5 0 -7 5 -4 10
3 6 8 10 11 10 2 0 4 -4 4 -10z m3332 -19 c-4 -10 -7 -11 -10 -3 -2 7 -9 9
-14 6 -6 -4 -8 -3 -5 3 10 16 36 11 29 -6z m-3337 -59 c-3 -3 -11 0 -18 7 -9
10 -8 11 6 5 10 -3 15 -9 12 -12z m2 -27 c0 -8 -4 -12 -9 -9 -4 3 -8 1 -8 -5
0 -5 6 -12 13 -14 9 -4 9 -6 0 -6 -16 -1 -24 14 -17 33 8 20 21 21 21 1z
m3337 -54 c6 -10 -24 -25 -32 -16 -3 3 0 5 7 5 7 0 9 5 6 10 -3 6 -2 10 4 10
5 0 12 -4 15 -9z m-6 -86 c-3 -3 -9 2 -12 12 -6 14 -5 15 5 6 7 -7 10 -15 7
-18z m-23 5 c3 -5 1 -10 -4 -10 -6 0 -11 5 -11 10 0 6 2 10 4 10 3 0 8 -4 11
-10z m29 -53 c-3 -8 -11 -14 -19 -14 -21 0 -19 15 3 20 9 3 18 5 19 6 1 0 0
-5 -3 -12z m-8 -69 c0 -10 -1 -18 -3 -18 -1 0 -7 8 -12 18 -7 13 -6 19 2 19 7
0 13 -9 13 -19z m-3326 -32 c0 -2 -7 -7 -16 -10 -8 -3 -12 -2 -9 4 6 10 25 14
25 6z m-4 -68 c0 -24 -14 -40 -28 -32 -6 4 18 54 26 54 1 0 2 -10 2 -22z m4
-98 c0 -5 -2 -10 -4 -10 -3 0 -8 5 -11 10 -3 6 -1 10 4 10 6 0 11 -4 11 -10z
m-15 -60 c3 -5 1 -10 -4 -10 -6 0 -11 5 -11 10 0 6 2 10 4 10 3 0 8 -4 11 -10z
m3345 -136 c0 -2 -9 0 -20 6 -11 6 -20 13 -20 16 0 2 9 0 20 -6 11 -6 20 -13
20 -16z m-3325 -64 c4 -6 1 -9 -6 -8 -6 2 -14 -3 -17 -11 -3 -9 0 -11 8 -6 9
6 11 4 5 -4 -10 -18 -27 2 -19 22 7 19 20 22 29 7z m-13 -120 c-14 -25 -15
-32 -4 -39 11 -7 11 -9 -2 -14 -31 -12 -28 27 7 71 17 21 17 13 -1 -18z m3313
-100 c3 -5 1 -10 -4 -10 -6 0 -11 5 -11 10 0 6 2 10 4 10 3 0 8 -4 11 -10z
m-3315 -50 c-9 -6 -11 -13 -5 -17 13 -11 18 -36 5 -28 -14 9 -13 -8 2 -23 7
-7 9 -12 5 -12 -3 0 -14 11 -22 24 -13 19 -14 29 -5 45 6 12 16 21 23 21 8 0
6 -4 -3 -10z m3340 -10 c0 -5 -7 -7 -15 -4 -8 4 -15 8 -15 10 0 2 7 4 15 4 8
0 15 -4 15 -10z m4 -194 c-3 -9 -12 -12 -22 -9 -15 6 -9 11 25 22 1 1 0 -5 -3
-13z m-3334 -32 c0 -8 -19 -13 -24 -6 -3 5 1 9 9 9 8 0 15 -2 15 -3z m3334
-113 c6 -10 -24 -25 -32 -16 -3 3 0 5 7 5 7 0 9 5 6 10 -3 6 -2 10 4 10 5 0
12 -4 15 -9z m-9 -171 c3 -6 -1 -7 -9 -4 -18 7 -21 14 -7 14 6 0 13 -4 16 -10z
m-3315 -386 c0 -8 -19 -13 -24 -6 -3 5 1 9 9 9 8 0 15 -2 15 -3z m-20 -59 c5
3 11 2 14 -3 3 -5 -3 -9 -12 -9 -18 0 -32 14 -32 32 1 6 5 2 11 -8 6 -9 14
-15 19 -12z m3344 1 c-3 -9 -12 -12 -22 -9 -15 6 -9 11 25 22 1 1 0 -5 -3 -13z
m-14 -56 c8 -5 11 -10 5 -10 -5 0 -17 5 -25 10 -8 5 -10 10 -5 10 6 0 17 -5
25 -10z m14 -144 c-3 -9 -12 -12 -22 -9 -15 6 -9 11 25 22 1 1 0 -5 -3 -13z
m-3349 -15 c-4 -14 0 -21 12 -24 16 -4 16 -5 1 -6 -21 -1 -30 12 -22 33 9 23
17 20 9 -3z m21 -108 c-6 -6 -36 9 -36 18 0 5 9 4 20 -3 10 -7 18 -14 16 -15z
m3321 -28 c0 -8 -4 -12 -9 -9 -4 3 -8 9 -8 15 0 5 4 9 8 9 5 0 9 -7 9 -15z
m-3331 -35 c0 -9 -5 -17 -11 -17 -6 0 -11 8 -11 17 0 9 5 17 11 17 6 0 11 -8
11 -17z m3309 -40 c3 -5 1 -10 -4 -10 -6 0 -11 5 -11 10 0 6 2 10 4 10 3 0 8
-4 11 -10z m-3304 -43 c-6 -8 -7 -18 -3 -23 4 -4 -1 -2 -10 5 -19 14 -25 26
-9 16 5 -3 12 -1 16 5 3 5 9 10 12 10 3 0 0 -6 -6 -13z m3333 -10 c-3 -8 -11
-14 -19 -14 -21 0 -19 15 3 20 9 3 18 5 19 6 1 0 0 -5 -3 -12z m-3330 -65 c2
-4 -5 -9 -17 -9 -17 -2 -19 0 -7 7 18 12 18 12 24 2z m3330 -16 c-3 -9 -12
-12 -22 -9 -15 6 -9 11 25 22 1 1 0 -5 -3 -13z m-3280 -112 c3 -8 2 -12 -4 -9
-6 3 -10 10 -10 16 0 14 7 11 14 -7z m990 8 c3 -5 -1 -9 -9 -9 -8 0 -12 4 -9
9 3 4 7 8 9 8 2 0 6 -4 9 -8z m190 0 c3 -5 -1 -9 -9 -9 -8 0 -12 4 -9 9 3 4 7
8 9 8 2 0 6 -4 9 -8z m283 -7 c0 -8 -4 -12 -9 -9 -5 3 -6 10 -3 15 9 13 12 11
12 -6z m1217 7 c3 -5 -1 -9 -9 -9 -8 0 -12 4 -9 9 3 4 7 8 9 8 2 0 6 -4 9 -8z
m320 0 c3 -5 -1 -9 -9 -9 -8 0 -12 4 -9 9 3 4 7 8 9 8 2 0 6 -4 9 -8z m110 0
c3 -5 -1 -9 -9 -9 -8 0 -12 4 -9 9 3 4 7 8 9 8 2 0 6 -4 9 -8z m-2297 -29
c-14 -14 -19 -15 -29 -4 -11 10 -10 11 3 6 10 -4 20 -2 24 4 3 6 9 11 13 11 3
0 -1 -8 -11 -17z m36 4 c3 -8 -1 -14 -8 -14 -7 0 -11 6 -8 14 3 7 6 13 8 13 2
0 5 -6 8 -13z m480 0 c3 -8 -1 -14 -8 -14 -7 0 -11 6 -8 14 3 7 6 13 8 13 2 0
5 -6 8 -13z m577 3 c0 -5 -2 -10 -4 -10 -3 0 -8 5 -11 10 -3 6 -1 10 4 10 6 0
11 -4 11 -10z m444 4 c18 -7 23 -38 5 -32 -6 2 -10 7 -9 12 1 5 -4 13 -12 17
-15 10 -7 12 16 3z m-2304 -8 c0 -3 -4 -8 -10 -11 -5 -3 -10 -1 -10 4 0 6 5
11 10 11 6 0 10 -2 10 -4z m595 -14 c-3 -3 -11 0 -18 7 -9 10 -8 11 6 5 10 -3
15 -9 12 -12z m445 -4 c0 -6 -6 -5 -15 2 -8 7 -15 14 -15 16 0 2 7 1 15 -2 8
-4 15 -11 15 -16z m480 18 c0 -3 -4 -8 -10 -11 -5 -3 -10 -1 -10 4 0 6 5 11
10 11 6 0 10 -2 10 -4z m160 0 c0 -3 -4 -8 -10 -11 -5 -3 -10 -1 -10 4 0 6 5
11 10 11 6 0 10 -2 10 -4z m240 0 c0 -3 -4 -8 -10 -11 -5 -3 -10 -1 -10 4 0 6
5 11 10 11 6 0 10 -2 10 -4z m355 -14 c-3 -3 -11 0 -18 7 -9 10 -8 11 6 5 10
-3 15 -9 12 -12z m285 14 c0 -3 -4 -8 -10 -11 -5 -3 -10 -1 -10 4 0 6 5 11 10
11 6 0 10 -2 10 -4z m-2115 -16 c-3 -5 -11 -10 -16 -10 -6 0 -7 5 -4 10 3 6
11 10 16 10 6 0 7 -4 4 -10z m800 0 c-3 -5 -11 -10 -16 -10 -6 0 -7 5 -4 10 3
6 11 10 16 10 6 0 7 -4 4 -10z"/>
<path d="M423 3445 c0 -6 6 -12 12 -12 6 0 12 6 12 12 0 6 -6 12 -12 12 -6 0
-12 -6 -12 -12z"/>
<path d="M1383 3443 c0 -9 4 -10 14 -2 7 6 13 12 13 14 0 1 -6 2 -13 2 -8 0
-14 -6 -14 -14z"/>
<path d="M1863 3445 c0 -6 6 -12 12 -12 6 0 12 6 12 12 0 6 -6 12 -12 12 -6 0
-12 -6 -12 -12z"/>
<path d="M3303 3445 c0 -7 6 -11 14 -8 7 3 13 1 13 -4 0 -4 13 -9 28 -9 18 -1
29 4 29 12 0 9 -5 10 -16 4 -10 -5 -25 -3 -42 5 -21 12 -26 12 -26 0z"/>
<path d="M130 3440 c-8 -6 -10 -10 -5 -11 65 -6 93 -5 89 3 -4 6 -14 8 -24 5
-9 -2 -24 -1 -32 4 -7 4 -20 4 -28 -1z"/>
<path d="M1110 3431 c0 -4 14 -7 30 -6 17 0 30 3 30 7 0 4 -13 6 -30 6 -16 -1
-30 -4 -30 -7z"/>
<path d="M1617 3433 c-3 -5 5 -8 18 -8 13 0 21 3 18 8 -2 4 -10 7 -18 7 -8 0
-16 -3 -18 -7z"/>
<path d="M3056 3432 c-2 -4 4 -8 15 -8 10 0 19 4 19 8 0 4 -6 8 -14 8 -8 0
-17 -4 -20 -8z"/>
<path d="M47 3317 c-9 -23 8 -40 22 -23 13 15 7 36 -9 36 -4 0 -10 -6 -13 -13z"/>
<path d="M47 3068 c-9 -31 -2 -33 11 -3 6 14 8 25 3 25 -5 0 -11 -10 -14 -22z"/>
<path d="M46 2657 c-16 -12 -16 -14 -3 -14 9 0 18 6 21 14 3 7 4 13 3 13 -2 0
-11 -6 -21 -13z"/>
<path d="M3420 2350 c-8 -15 -8 -18 3 -14 8 3 14 11 14 19 0 20 -4 19 -17 -5z"/>
<path d="M3417 2226 c-4 -10 -1 -13 8 -9 8 3 12 9 9 14 -7 12 -11 11 -17 -5z"/>
<path d="M36 2172 c-3 -5 1 -9 9 -9 8 0 15 4 15 9 0 4 -4 8 -9 8 -6 0 -12 -4
-15 -8z"/>
<path d="M55 2100 c-3 -5 -2 -10 4 -10 5 0 13 5 16 10 3 6 2 10 -4 10 -5 0
-13 -4 -16 -10z"/>
<path d="M3422 2035 c-9 -19 -8 -23 1 -19 7 2 13 13 14 24 2 26 -1 25 -15 -5z"/>
<path d="M3420 1995 c-9 -10 -9 -15 -1 -15 6 0 11 5 11 11 0 5 5 7 12 3 7 -4
8 -3 4 4 -9 15 -11 15 -26 -3z"/>
<path d="M3417 1906 c-4 -10 -1 -13 8 -9 8 3 12 9 9 14 -7 12 -11 11 -17 -5z"/>
<path d="M3420 1315 c-7 -9 -8 -15 -2 -15 5 0 12 7 16 15 3 8 4 15 2 15 -2 0
-9 -7 -16 -15z"/>
<path d="M36 1212 c-3 -5 1 -9 9 -9 8 0 15 4 15 9 0 4 -4 8 -9 8 -6 0 -12 -4
-15 -8z"/>
<path d="M55 1140 c-3 -5 -2 -10 4 -10 5 0 13 5 16 10 3 6 2 10 -4 10 -5 0
-13 -4 -16 -10z"/>
<path d="M3417 946 c-4 -10 -1 -13 8 -9 8 3 12 9 9 14 -7 12 -11 11 -17 -5z"/>
<path d="M36 732 c-3 -5 1 -9 9 -9 8 0 15 4 15 9 0 4 -4 8 -9 8 -6 0 -12 -4
-15 -8z"/>
<path d="M3421 147 c-8 -10 -7 -14 2 -14 8 0 14 6 14 14 0 7 -1 13 -2 13 -2 0
-8 -6 -14 -13z"/>
<path d="M48 138 c9 -9 8 -16 -1 -27 -11 -14 -10 -15 7 -1 18 14 19 13 13 -3
-4 -11 -3 -16 3 -12 16 10 5 48 -15 51 -13 2 -15 0 -7 -8z"/>
<path d="M830 69 c-7 -11 -9 -23 -6 -27 3 -3 6 0 6 6 0 7 7 12 15 12 17 0 20
16 6 25 -6 3 -15 -4 -21 -16z"/>
<path d="M391 66 c-9 -11 -9 -16 0 -22 7 -4 9 -3 5 4 -3 5 0 12 6 15 7 2 10 7
7 11 -3 4 -12 0 -18 -8z"/>
<path d="M666 68 c3 -4 16 -7 29 -6 30 3 23 11 -9 13 -14 0 -22 -3 -20 -7z"/>
<path d="M1144 68 c3 -15 26 -23 26 -8 0 6 -4 9 -9 6 -5 -4 -12 -1 -14 4 -3 6
-4 5 -3 -2z"/>
<path d="M1655 70 c-4 -6 -10 -8 -14 -6 -4 3 -8 -1 -8 -8 0 -7 6 -13 14 -13 7
0 11 3 8 5 -3 3 0 11 6 19 6 7 9 13 6 13 -3 0 -9 -5 -12 -10z"/>
<path d="M2410 65 c0 -8 4 -15 10 -15 5 0 7 7 4 15 -4 8 -8 15 -10 15 -2 0 -4
-7 -4 -15z"/>
<path d="M2550 66 c0 -9 5 -16 10 -16 6 0 10 4 10 9 0 6 -4 13 -10 16 -5 3
-10 -1 -10 -9z"/>
<path d="M3255 70 c-4 -6 -10 -8 -14 -6 -4 3 -8 -1 -8 -8 0 -7 6 -13 14 -13 7
0 11 3 8 5 -3 3 0 11 6 19 6 7 9 13 6 13 -3 0 -9 -5 -12 -10z"/>
<path d="M301 61 c-9 -6 -10 -11 -2 -15 6 -4 11 -2 11 4 0 6 5 8 10 5 6 -3 10
-1 10 4 0 13 -10 14 -29 2z"/>
<path d="M890 60 c0 -5 5 -10 11 -10 5 0 7 5 4 10 -3 6 -8 10 -11 10 -2 0 -4
-4 -4 -10z"/>
<path d="M1596 62 c-3 -5 1 -9 9 -9 8 0 12 4 9 9 -7 10 -11 10 -18 0z"/>
</g>
</svg>
